<!-- src/assets/google-icon.svg -->
<svg xmlns="http://www.w3.org/2000/svg" width="24" height="24" viewBox="0 0 24 24">
  <path fill="#4285F4" d="M21.35 11.1h-9.18v2.92h5.26c-.23 1.3-.93 2.4-1.96 3.13v2.59h3.17c1.86-1.71 2.94-4.23 2.94-7.1 0-.64-.06-1.27-.17-1.87z"/>
  <path fill="#34A853" d="M12.17 22c2.63 0 4.83-.87 6.44-2.37l-3.17-2.59c-.88.59-2.01.94-3.27.94-2.52 0-4.66-1.7-5.42-4.01H3.49v2.52C5.1 19.98 8.37 22 12.17 22z"/>
  <path fill="#FBBC05" d="M6.75 13.97a5.93 5.93 0 010-3.94V7.51H3.49a9.936 9.936 0 000 8.98l3.26-2.52z"/>
  <path fill="#EA4335" d="M12.17 6.58c1.43 0 2.71.49 3.72 1.45l2.78-2.78C16.99 3.9 14.8 3 12.17 3 8.37 3 5.1 5.02 3.49 7.51l3.26 2.52c.76-2.31 2.9-4.01 5.42-4.01z"/>
</svg>
